inDegrees=no
num_controls=7
num_derivatives=13
num_iterations=97
num_multipliers=7
num_parameters=0
num_slacks=7
num_states=26
objective=0.343585
objective_accelerations=0.017371
objective_balance=0.001178
objective_effort=0.023718
objective_height=0.299788
objective_ligament=0.001529
solver_duration=1030.843812
status=Solve_Succeeded
success=true
DataType=double
version=3
OpenSimVersion=4.5
endheader
time	/jointset/ground_pelvis/pelvis_tilt/value	/jointset/ground_pelvis/pelvis_tx/value	/jointset/ground_pelvis/pelvis_ty/value	/jointset/hip_r/hip_flexion_r/value	/jointset/hip_r/hip_adduction_r/value	/jointset/hip_r/hip_rotation_r/value	/jointset/back/lumbar_extension/value	/jointset/patellofemoral_r/patellar_flexion_r/value	/jointset/knee_r/knee_flexion_r/value	/jointset/knee_r/knee_adduction_r/value	/jointset/knee_r/knee_rotation_r/value	/jointset/ankle_r/ankle_angle_r/value	/jointset/subtalar_r/subtalar_angle_r/value	/jointset/ground_pelvis/pelvis_tilt/speed	/jointset/ground_pelvis/pelvis_tx/speed	/jointset/ground_pelvis/pelvis_ty/speed	/jointset/hip_r/hip_flexion_r/speed	/jointset/hip_r/hip_adduction_r/speed	/jointset/hip_r/hip_rotation_r/speed	/jointset/back/lumbar_extension/speed	/jointset/patellofemoral_r/patellar_flexion_r/speed	/jointset/knee_r/knee_flexion_r/speed	/jointset/knee_r/knee_adduction_r/speed	/jointset/knee_r/knee_rotation_r/speed	/jointset/ankle_r/ankle_angle_r/speed	/jointset/subtalar_r/subtalar_angle_r/speed	/forceset/tau_hip_flexion_r	/forceset/tau_hip_adduction_r	/forceset/tau_hip_rotation_r	/forceset/tau_knee_flexion_r	/forceset/tau_ankle_angle_r	/forceset/tau_subtalar_angle_r	/forceset/tau_lumbar_extension	lambda_cid13_p0	lambda_cid14_p0	lambda_cid14_p1	lambda_cid14_p2	lambda_cid14_p3	lambda_cid14_p4	lambda_cid14_p5	/jointset/ground_pelvis/pelvis_tilt/accel	/jointset/ground_pelvis/pelvis_tx/accel	/jointset/ground_pelvis/pelvis_ty/accel	/jointset/hip_r/hip_flexion_r/accel	/jointset/hip_r/hip_adduction_r/accel	/jointset/hip_r/hip_rotation_r/accel	/jointset/back/lumbar_extension/accel	/jointset/patellofemoral_r/patellar_flexion_r/accel	/jointset/knee_r/knee_flexion_r/accel	/jointset/knee_r/knee_adduction_r/accel	/jointset/knee_r/knee_rotation_r/accel	/jointset/ankle_r/ankle_angle_r/accel	/jointset/subtalar_r/subtalar_angle_r/accel	gamma_cid13_p0	gamma_cid14_p0	gamma_cid14_p1	gamma_cid14_p2	gamma_cid14_p3	gamma_cid14_p4	gamma_cid14_p5
0.5	0.01898305213606674	0.0863968306995395	0.8658717155088388	0.5254564910771462	-0.2270279466850493	-0.1495421328554372	-0.5875520484498682	0.7733626812894343	0.7733626812894341	-0.004029823767550247	0.1745321841027177	0.3121257753779422	0.1398198681568118	0.0475234344304346	-0.1280489005532031	-0.2621969186812224	0.9217784934330197	-0.005761620334855652	0.1402778447992256	-0.7352647696269617	1.40863545338293	1.408635453382932	-0.3589886335852046	-1.547714003950518e-05	0.5328536512443582	0.2061354300853198	-0.0904081654860522	0.01739754356300581	0.0188579726657394	-0.2829337011658252	-0.03869560077103289	-0.01347587848389335	0.1679988175161869	-17.68374821340019	-56.77168235013464	-13.92540325455785	0.5089111635924701	7.598298014397484	-650.9815510175633	54.53320603704242	-0.1552484404162275	0.06261990097551068	-0.2075447937378824	-0.4511030744380142	-0.1257015476301934	-0.5232096038860431	0.8137973479910412	-1.285260320218525	-1.285260320218525	0.3345036654542103	-0.01035455608314001	-0.8046506673719598	-0.2953545094830055	-3.216336667752215e-08	9.641689703423479e-10	3.83999946832503e-07	-1.175675338914405e-07	-4.704237977051174e-08	-1.15645055065788e-08	3.049032429175251e-07
0.51	0.01945037698740682	0.08511963556187394	0.8632399384713818	0.5346505595777982	-0.2270919230654478	-0.1481657292503919	-0.5948629594371315	0.7873827702135998	0.7873827702135984	-0.007602515146588867	0.1745319569778872	0.3174132480278764	0.1418658543166023	0.04593826938382758	-0.1273748648653657	-0.2640976620010004	0.9169061270406818	-0.007024469549806156	0.1350027862518475	-0.7268287386044893	1.395178319779378	1.395178319779379	-0.3555212769440298	-2.691738946127952e-05	0.5245615226922882	0.203027628168014	-0.09338717224137098	0.01856925210687265	0.01903009171322457	-0.2871291516845513	-0.03954917755623487	-0.01293525560578978	0.1714349398880227	-17.00554761709297	-57.19987386914183	-13.91206967105702	0.6741072233883486	7.664550730210282	-653.4980806463038	54.65328943416973	-0.1606417644531214	0.07207613024137581	-0.1722178175456553	-0.5246661258325712	-0.1251978310823864	-0.529706064781886	0.8718093625467213	-1.406535493607812	-1.406535493607881	0.3571481970418151	0.003899965450889174	-0.8534081528217267	-0.3235820159338173	-3.0645083241279e-08	-8.348957701497071e-10	3.334545688817889e-07	-1.690077070187155e-07	-4.117975381473615e-08	-1.418219293811358e-08	2.972531591327636e-07
0.52	0.01990175194274624	0.08384963692659747	0.8605909782574375	0.5437920318736859	-0.2271682521825274	-0.1468420866477438	-0.6020868494375358	0.8012621686790916	0.8012621686790915	-0.011139673652501	0.1745317031955287	0.3226154165515508	0.1438797446606036	0.04433345523041431	-0.126609600075385	-0.2656335539786944	0.9112592524803091	-0.008232167670951213	0.1297256443197412	-0.7178605722551622	1.380497361648458	1.380497361648459	-0.3518820589591459	-2.080864597986276e-05	0.51579282599233	0.1997162669275296	-0.09636617899669145	0.01974096065073572	0.01920221076073114	-0.2913246022032763	-0.04040275434143835	-0.01239463272769424	0.1748710622598575	-16.32651210866187	-57.63400080421721	-13.89934599039124	0.8389103098450591	7.741477552923929	-656.0944227501532	54.7961082495233	-0.1591782617774838	0.0808657214041647	-0.134574525321069	-0.6060047080449553	-0.1146713288691046	-0.5236262808316833	0.9202244133619458	-1.530025225691834	-1.530025225691835	0.3688759341960181	-0.006844757502497676	-0.8999642969496142	-0.3360663741187532	-3.056024383066012e-08	-2.433555859825147e-09	3.032102259135998e-07	-2.134165872455851e-07	-3.760671929080063e-08	-1.517840560373069e-08	2.967728161406326e-07
0.53	0.0203369990411095	0.08258774075915166	0.8579284875588236	0.5528732350999901	-0.2272564140847319	-0.1455709582479002	-0.6092184055184915	0.8149888626349291	0.8149888626349291	-0.01463938258824393	0.1745315087617749	0.3277276246861993	0.1458594630365949	0.04271732320524232	-0.1257549083206366	-0.2668026436076064	0.9048544425613322	-0.009389253265668817	0.1245041065052732	-0.7083657357649836	1.364654121392353	1.364654121392354	-0.3480338552710354	-1.582503244174216e-05	0.506580402842984	0.1961981242397053	-0.09935387244359857	0.02092534605292243	0.0193655961052052	-0.2954485488612481	-0.04120357556528927	-0.01189979097317176	0.1783124535017797	-15.64759110969189	-58.05192274098488	-13.90937499765143	1.013859706389537	7.79886604056359	-658.6452653123517	54.88860857876873	-0.1626285964489855	0.0899725205060707	-0.09878800153959708	-0.6767630507496788	-0.1146030536360094	-0.520852884867291	0.9768494924861797	-1.639563541433744	-1.63956354143376	0.3967042333919368	0.004474227366102766	-0.9421491583786621	-0.36406414026515	-3.020242202243255e-08	-4.346507987335159e-09	2.675279290055351e-07	-2.581078118703455e-07	-3.324099243217855e-08	-1.674194954860322e-08	2.908727859814141e-07
0.54	0.02075612523450795	0.08133483183285253	0.8552561635999479	0.5618865814437186	-0.2273558220186574	-0.144351932296823	-0.6162524659894174	0.8285515061650326	0.8285515061650329	-0.01809982715765203	0.1745314250254723	0.3327456550224639	0.1478031248008776	0.04110927423759384	-0.1248121518460509	-0.2676002060310515	0.8976878759653314	-0.01048137401490237	0.1193051545662877	-0.6983614502491902	1.347687276501692	1.347687276501693	-0.3440291856919894	1.330844461722527e-06	0.496957266315575	0.1925049445858453	-0.1023415658905062	0.02210973145510853	0.01952898144967859	-0.29957249551922	-0.04200439678914036	-0.01140494921865015	0.1817538447437013	-14.96984802923676	-58.47637034784313	-13.91960409184887	1.187764675423452	7.866755214489213	-661.2853913909262	55.00887969725976	-0.1575616502727914	0.09847866537161991	-0.06026908422767559	-0.7583560434496878	-0.1016783597722968	-0.5191091057351961	1.02211421848494	-1.754746152603026	-1.754746152603026	0.4001691123831191	-0.004410304829426142	-0.9821069725622024	-0.3710737673259142	-2.95425771359996e-08	-6.607187475853639e-09	2.258291724193101e-07	-3.031114175310701e-07	-2.799824426709474e-08	-1.893317916414135e-08	2.789765061905241e-07
0.55	0.02115920145015534	0.08009177851156692	0.8525777261998539	0.5708245298257657	-0.227465878778828	-0.1431844098724207	-0.6231840137133536	0.8419390415019213	0.8419390415019208	-0.02151910038792293	0.1745314438538566	0.3376654625352328	0.1497088877110796	0.03950847774747105	-0.1237848787902497	-0.2680242929712378	0.8897784133743162	-0.01151992891671592	0.1142145828985928	-0.6878730576655429	1.329645004274518	1.329645004274518	-0.339789661680484	3.025519847810789e-06	0.4869423023925795	0.1886173866814275	-0.105211266203572	0.02314671002362197	0.01970542829298269	-0.3037749022163535	-0.0425730390376915	-0.01091907825781263	0.1850951761123664	-14.29444186419548	-58.82201503293523	-13.92242175161773	1.363332387128317	7.88237850881344	-663.8521059143468	55.16278678767207	-0.1609646100110929	0.1068916411169995	-0.02403537211457398	-0.8257516064722397	-0.1034782102318922	-0.5017953115606828	1.073457309172567	-1.855179911462537	-1.855179911462542	0.4412314264764418	0.002494981210512215	-1.020486005458815	-0.4021418856668038	-2.912600130848881e-08	-8.718128762985096e-09	1.894296085261591e-07	-3.419431858656478e-07	-2.33863025100982e-08	-2.038450593648148e-08	2.662568338219718e-07
0.5600000000000001	0.02154634450857514	0.07885940592392585	0.8498969365557179	0.5796796815339931	-0.227586027918987	-0.1420673459875497	-0.6300084264052799	0.8551409116858001	0.8551409116858	-0.0248949009018923	0.174531486754492	0.3424832614281139	0.1515748660255039	0.03792264279218613	-0.122676005117142	-0.2680706548394423	0.8811285412015095	-0.01249985001236849	0.1092134466599357	-0.6769344438471779	1.310554245899826	1.310554245899826	-0.3353346424312896	6.145294749162802e-06	0.4765555423379606	0.184548025430326	-0.1080809665166387	0.02418368859213322	0.01988187513629644	-0.3079773089134862	-0.0431416812862433	-0.01043320729697915	0.1884365074810309	-13.62261438590392	-59.17445229061428	-13.92470772267072	1.536849816633183	7.907328821629397	-666.5152528408336	55.34962496167352	-0.1545693433052269	0.1147987888329248	0.01527593016869194	-0.9064379598079778	-0.08995159854010272	-0.5012220199276375	1.112158465428433	-1.964443382106595	-1.964443382106593	0.4432681599209431	-0.00412528492637326	-1.056466198886864	-0.4074344366626464	-2.900134835168463e-08	-1.064938420845213e-08	1.593890758646966e-07	-3.733687494088493e-07	-1.953132844280635e-08	-2.094794929698404e-08	2.525490903602246e-07
0.5700000000000001	0.02191770412158943	0.07763851398567204	0.8472175695685469	0.5884447142607863	-0.2277156767638515	-0.1409996870508262	-0.636721262297946	0.8681468000901421	0.8681468000901418	-0.02822498250397789	0.1745315077831893	0.3471954129927033	0.1533992587378684	0.03635316939257166	-0.121490212361198	-0.267739642287015	0.871759829501928	-0.01341609370688097	0.1043295536839048	-0.6655648936992722	1.290461147650021	1.290461147650021	-0.3306562879603911	-7.793316997566577e-07	0.4658209679898948	0.1803085723808928	-0.1108756532335707	0.02517870432222859	0.02006641451467652	-0.3121419177257213	-0.04358559064426772	-0.009993090347772446	0.191701040585432	-12.95567000096284	-59.48394696103592	-13.94504047805105	1.71974889530556	7.911237355205938	-669.0700049711733	55.49996626730099	-0.1575557282936855	0.1222915747148195	0.05147471060939773	-0.9698168361595526	-0.09044301350126967	-0.480347141934907	1.159529437479093	-2.05608035803563	-2.056080358035586	0.4839369209128653	0.001131094545926541	-1.09002616402099	-0.4355170447172641	-2.876576685973098e-08	-1.263514465664983e-08	1.294897257271824e-07	-4.018035186198927e-07	-1.555919600406237e-08	-2.172783998223798e-08	2.369287746855308e-07
0.58	0.02227348512260627	0.07642984438612563	0.8445434048654661	0.5971125140583577	-0.227854084497381	-0.1399805418849613	-0.6433183674595316	0.8809468900496624	0.8809468900496622	-0.03150751699530788	0.1745314809948318	0.3517986041915614	0.1551805936586117	0.03480692039279259	-0.1202315373756661	-0.267030198021401	0.8616819553572945	-0.01425162774517048	0.09951069248811052	-0.6537882976310684	1.269394556935492	1.269394556935493	-0.3258252202799495	-3.418116145674783e-06	0.4547634691916475	0.1759364671061152	-0.1136703399505033	0.02617372005232291	0.02025095389305947	-0.3163065265379562	-0.04402950000229244	-0.009552973398567656	0.1949655736898327	-12.29508271583178	-59.80039949844404	-13.96433074355635	1.89989969642778	7.92368261277493	-671.7253503308666	55.68667380744492	-0.1499244633381561	0.1293752347505056	0.09096227280604181	-1.04827044881836	-0.07380966729550895	-0.4882156638803061	1.19356764948806	-2.159141875051215	-2.159141875051214	0.4738108018295767	-0.00326811652577502	-1.121051088923149	-0.4339648817315442	-2.838572029874548e-08	-1.469188836421767e-08	9.977424120225228e-08	-4.263432998634741e-07	-1.143448522110173e-08	-2.27896155555402e-08	2.18817667291651e-07
0.59	0.02261393436751061	0.07523411642509113	0.8418782220028025	0.6056760320964112	-0.2280004949398604	-0.1390089634426854	-0.6497957599606147	0.8935316155368094	0.8935316155368088	-0.03474066880129031	0.1745313819495408	0.3562896713659987	0.1569174649624247	0.03328861026757533	-0.1189026991948758	-0.2659436384763921	0.8509064839097717	-0.01501943404113746	0.0948281230722335	-0.6416311228470073	1.247402019797317	1.247402019797318	-0.3207657677264713	-1.515027599208417e-05	0.443403049099509	0.1714129750173554	-0.116345769777714	0.02705803646683771	0.0204569912741806	-0.3204801224142652	-0.04426763490086987	-0.009147136617122064	0.198115538106955	-11.64258100568012	-60.04459254258509	-13.99042894661473	2.086358116656362	7.892332560276284	-674.2439754026179	55.86405787160938	-0.1519353369232428	0.1363396516241836	0.1269085182547572	-1.109464252603731	-0.07667988226147461	-0.4548670509282919	1.235654353634075	-2.241582105067907	-2.241582105067943	0.5279205095780041	-1.818405428370002e-05	-1.150575814551714	-0.4653041213783952	-2.828417038900839e-08	-1.647159915538666e-08	7.502951417200504e-08	-4.46436846021615e-07	-8.109052766244076e-09	-2.285960163899367e-08	2.013350713427918e-07
